#N canvas 185 22 1200 517 12;
#X obj 600 50 import mrpeach;
#X obj 250 150 udpsend;
#X msg 250 50 connect 127.0.0.1 64495;
#X msg 250 100 disconnect;
#X obj 50 27 ctlin;
#X obj 50 55 hsl 128 15 0 127 0 0 empty empty empty -2 -8 0 10 -262144 -1 -1 0 1;
#X msg 290 300 47 68 105 110 111 117 116 47 102 118 68 73 79 67 83 43 48 47 108 112 102 47 102 0 44 102 0 0 62 81 68 120;
#X connect 6 0 1 0;
#X obj 140 260 == 0;
#X obj 200 280 spigot;
#X connect 7 0 8 0;
#X connect 7 0 8 1;
#X connect 5 0 7 0;
#X connect 8 0 6 0;
#X msg 290 350 47 68 105 110 111 117 116 47 102 118 68 73 79 67 83 43 48 47 108 112 102 47 102 0 44 102 0 0 62 94 199 204;
#X connect 9 0 1 0;
#X obj 140 310 == 1;
#X obj 200 330 spigot;
#X connect 10 0 11 0;
#X connect 10 0 11 1;
#X connect 5 0 10 0;
#X connect 11 0 9 0;
#X msg 290 400 47 68 105 110 111 117 116 47 102 118 68 73 79 67 83 43 48 47 108 112 102 47 102 0 44 102 0 0 62 94 59 152;
#X connect 12 0 1 0;
#X obj 140 360 == 2;
#X obj 200 380 spigot;
#X connect 13 0 14 0;
#X connect 13 0 14 1;
#X connect 5 0 13 0;
#X connect 14 0 12 0;
#X msg 290 450 47 68 105 110 111 117 116 47 102 118 68 73 79 67 83 43 48 47 108 112 102 47 102 0 44 102 0 0 62 110 110 192;
#X connect 15 0 1 0;
#X obj 140 410 == 3;
#X obj 200 430 spigot;
#X connect 16 0 17 0;
#X connect 16 0 17 1;
#X connect 5 0 16 0;
#X connect 17 0 15 0;
#X msg 290 500 47 68 105 110 111 117 116 47 102 118 68 73 79 67 83 43 48 47 108 112 102 47 102 0 44 102 0 0 62 113 246 128;
#X connect 18 0 1 0;
#X obj 140 460 == 4;
#X obj 200 480 spigot;
#X connect 19 0 20 0;
#X connect 19 0 20 1;
#X connect 5 0 19 0;
#X connect 20 0 18 0;
#X msg 290 550 47 68 105 110 111 117 116 47 102 118 68 73 79 67 83 43 48 47 108 112 102 47 102 0 44 102 0 0 62 128 169 154;
#X connect 21 0 1 0;
#X obj 140 510 == 5;
#X obj 200 530 spigot;
#X connect 22 0 23 0;
#X connect 22 0 23 1;
#X connect 5 0 22 0;
#X connect 23 0 21 0;
#X msg 290 600 47 68 105 110 111 117 116 47 102 118 68 73 79 67 83 43 48 47 108 112 102 47 102 0 44 102 0 0 62 129 49 48;
#X connect 24 0 1 0;
#X obj 140 560 == 6;
#X obj 200 580 spigot;
#X connect 25 0 26 0;
#X connect 25 0 26 1;
#X connect 5 0 25 0;
#X connect 26 0 24 0;
#X msg 290 650 47 68 105 110 111 117 116 47 102 118 68 73 79 67 83 43 48 47 108 112 102 47 102 0 44 102 0 0 62 135 155 160;
#X connect 27 0 1 0;
#X obj 140 610 == 7;
#X obj 200 630 spigot;
#X connect 28 0 29 0;
#X connect 28 0 29 1;
#X connect 5 0 28 0;
#X connect 29 0 27 0;
#X msg 290 700 47 68 105 110 111 117 116 47 102 118 68 73 79 67 83 43 48 47 108 112 102 47 102 0 44 102 0 0 62 141 244 152;
#X connect 30 0 1 0;
#X obj 140 660 == 8;
#X obj 200 680 spigot;
#X connect 31 0 32 0;
#X connect 31 0 32 1;
#X connect 5 0 31 0;
#X connect 32 0 30 0;
#X msg 290 750 47 68 105 110 111 117 116 47 102 118 68 73 79 67 83 43 48 47 108 112 102 47 102 0 44 102 0 0 62 141 246 52;
#X connect 33 0 1 0;
#X obj 140 710 == 9;
#X obj 200 730 spigot;
#X connect 34 0 35 0;
#X connect 34 0 35 1;
#X connect 5 0 34 0;
#X connect 35 0 33 0;
#X msg 290 800 47 68 105 110 111 117 116 47 102 118 68 73 79 67 83 43 48 47 108 112 102 47 102 0 44 102 0 0 62 147 251 160;
#X connect 36 0 1 0;
#X obj 140 760 == 10;
#X obj 200 780 spigot;
#X connect 37 0 38 0;
#X connect 37 0 38 1;
#X connect 5 0 37 0;
#X connect 38 0 36 0;
#X msg 290 850 47 68 105 110 111 117 116 47 102 118 68 73 79 67 83 43 48 47 108 112 102 47 102 0 44 102 0 0 62 153 135 84;
#X connect 39 0 1 0;
#X obj 140 810 == 11;
#X obj 200 830 spigot;
#X connect 40 0 41 0;
#X connect 40 0 41 1;
#X connect 5 0 40 0;
#X connect 41 0 39 0;
#X msg 290 900 47 68 105 110 111 117 116 47 102 118 68 73 79 67 83 43 48 47 108 112 102 47 102 0 44 102 0 0 62 154 81 138;
#X connect 42 0 1 0;
#X obj 140 860 == 12;
#X obj 200 880 spigot;
#X connect 43 0 44 0;
#X connect 43 0 44 1;
#X connect 5 0 43 0;
#X connect 44 0 42 0;
#X msg 290 950 47 68 105 110 111 117 116 47 102 118 68 73 79 67 83 43 48 47 108 112 102 47 102 0 44 102 0 0 62 159 210 194;
#X connect 45 0 1 0;
#X obj 140 910 == 13;
#X obj 200 930 spigot;
#X connect 46 0 47 0;
#X connect 46 0 47 1;
#X connect 5 0 46 0;
#X connect 47 0 45 0;
#X msg 290 1000 47 68 105 110 111 117 116 47 102 118 68 73 79 67 83 43 48 47 108 112 102 47 102 0 44 102 0 0 62 158 219 102;
#X connect 48 0 1 0;
#X obj 140 960 == 14;
#X obj 200 980 spigot;
#X connect 49 0 50 0;
#X connect 49 0 50 1;
#X connect 5 0 49 0;
#X connect 50 0 48 0;
#X msg 290 1050 47 68 105 110 111 117 116 47 102 118 68 73 79 67 83 43 48 47 108 112 102 47 102 0 44 102 0 0 62 164 29 110;
#X connect 51 0 1 0;
#X obj 140 1010 == 15;
#X obj 200 1030 spigot;
#X connect 52 0 53 0;
#X connect 52 0 53 1;
#X connect 5 0 52 0;
#X connect 53 0 51 0;
#X msg 290 1100 47 68 105 110 111 117 116 47 102 118 68 73 79 67 83 43 48 47 108 112 102 47 102 0 44 102 0 0 62 164 113 40;
#X connect 54 0 1 0;
#X obj 140 1060 == 16;
#X obj 200 1080 spigot;
#X connect 55 0 56 0;
#X connect 55 0 56 1;
#X connect 5 0 55 0;
#X connect 56 0 54 0;
#X msg 290 1150 47 68 105 110 111 117 116 47 102 118 68 73 79 67 83 43 48 47 108 112 102 47 102 0 44 102 0 0 62 169 189 32;
#X connect 57 0 1 0;
#X obj 140 1110 == 17;
#X obj 200 1130 spigot;
#X connect 58 0 59 0;
#X connect 58 0 59 1;
#X connect 5 0 58 0;
#X connect 59 0 57 0;
#X msg 290 1200 47 68 105 110 111 117 116 47 102 118 68 73 79 67 83 43 48 47 108 112 102 47 102 0 44 102 0 0 62 174 159 40;
#X connect 60 0 1 0;
#X obj 140 1160 == 18;
#X obj 200 1180 spigot;
#X connect 61 0 62 0;
#X connect 61 0 62 1;
#X connect 5 0 61 0;
#X connect 62 0 60 0;
#X msg 290 1250 47 68 105 110 111 117 116 47 102 118 68 73 79 67 83 43 48 47 108 112 102 47 102 0 44 102 0 0 62 178 153 80;
#X connect 63 0 1 0;
#X obj 140 1210 == 19;
#X obj 200 1230 spigot;
#X connect 64 0 65 0;
#X connect 64 0 65 1;
#X connect 5 0 64 0;
#X connect 65 0 63 0;
#X msg 290 1300 47 68 105 110 111 117 116 47 102 118 68 73 79 67 83 43 48 47 108 112 102 47 102 0 44 102 0 0 62 183 19 130;
#X connect 66 0 1 0;
#X obj 140 1260 == 20;
#X obj 200 1280 spigot;
#X connect 67 0 68 0;
#X connect 67 0 68 1;
#X connect 5 0 67 0;
#X connect 68 0 66 0;
#X msg 290 1350 47 68 105 110 111 117 116 47 102 118 68 73 79 67 83 43 48 47 108 112 102 47 102 0 44 102 0 0 62 183 25 38;
#X connect 69 0 1 0;
#X obj 140 1310 == 21;
#X obj 200 1330 spigot;
#X connect 70 0 71 0;
#X connect 70 0 71 1;
#X connect 5 0 70 0;
#X connect 71 0 69 0;
#X msg 290 1400 47 68 105 110 111 117 116 47 102 118 68 73 79 67 83 43 48 47 108 112 102 47 102 0 44 102 0 0 62 188 114 56;
#X connect 72 0 1 0;
#X obj 140 1360 == 22;
#X obj 200 1380 spigot;
#X connect 73 0 74 0;
#X connect 73 0 74 1;
#X connect 5 0 73 0;
#X connect 74 0 72 0;
#X msg 290 1450 47 68 105 110 111 117 116 47 102 118 68 73 79 67 83 43 48 47 108 112 102 47 102 0 44 102 0 0 62 192 233 164;
#X connect 75 0 1 0;
#X obj 140 1410 == 23;
#X obj 200 1430 spigot;
#X connect 76 0 77 0;
#X connect 76 0 77 1;
#X connect 5 0 76 0;
#X connect 77 0 75 0;
#X msg 290 1500 47 68 105 110 111 117 116 47 102 118 68 73 79 67 83 43 48 47 108 112 102 47 102 0 44 102 0 0 62 197 159 112;
#X connect 78 0 1 0;
#X obj 140 1460 == 24;
#X obj 200 1480 spigot;
#X connect 79 0 80 0;
#X connect 79 0 80 1;
#X connect 5 0 79 0;
#X connect 80 0 78 0;
#X msg 290 1550 47 68 105 110 111 117 116 47 102 118 68 73 79 67 83 43 48 47 108 112 102 47 102 0 44 102 0 0 62 202 82 188;
#X connect 81 0 1 0;
#X obj 140 1510 == 25;
#X obj 200 1530 spigot;
#X connect 82 0 83 0;
#X connect 82 0 83 1;
#X connect 5 0 82 0;
#X connect 83 0 81 0;
#X msg 290 1600 47 68 105 110 111 117 116 47 102 118 68 73 79 67 83 43 48 47 108 112 102 47 102 0 44 102 0 0 62 207 3 62;
#X connect 84 0 1 0;
#X obj 140 1560 == 26;
#X obj 200 1580 spigot;
#X connect 85 0 86 0;
#X connect 85 0 86 1;
#X connect 5 0 85 0;
#X connect 86 0 84 0;
#X msg 290 1650 47 68 105 110 111 117 116 47 102 118 68 73 79 67 83 43 48 47 108 112 102 47 102 0 44 102 0 0 62 206 209 158;
#X connect 87 0 1 0;
#X obj 140 1610 == 27;
#X obj 200 1630 spigot;
#X connect 88 0 89 0;
#X connect 88 0 89 1;
#X connect 5 0 88 0;
#X connect 89 0 87 0;
#X msg 290 1700 47 68 105 110 111 117 116 47 102 118 68 73 79 67 83 43 48 47 108 112 102 47 102 0 44 102 0 0 62 211 249 222;
#X connect 90 0 1 0;
#X obj 140 1660 == 28;
#X obj 200 1680 spigot;
#X connect 91 0 92 0;
#X connect 91 0 92 1;
#X connect 5 0 91 0;
#X connect 92 0 90 0;
#X msg 290 1750 47 68 105 110 111 117 116 47 102 118 68 73 79 67 83 43 48 47 108 112 102 47 102 0 44 102 0 0 62 216 121 154;
#X connect 93 0 1 0;
#X obj 140 1710 == 29;
#X obj 200 1730 spigot;
#X connect 94 0 95 0;
#X connect 94 0 95 1;
#X connect 5 0 94 0;
#X connect 95 0 93 0;
#X msg 290 1800 47 68 105 110 111 117 116 47 102 118 68 73 79 67 83 43 48 47 108 112 102 47 102 0 44 102 0 0 62 220 127 62;
#X connect 96 0 1 0;
#X obj 140 1760 == 30;
#X obj 200 1780 spigot;
#X connect 97 0 98 0;
#X connect 97 0 98 1;
#X connect 5 0 97 0;
#X connect 98 0 96 0;
#X msg 290 1850 47 68 105 110 111 117 116 47 102 118 68 73 79 67 83 43 48 47 108 112 102 47 102 0 44 102 0 0 62 224 157 8;
#X connect 99 0 1 0;
#X obj 140 1810 == 31;
#X obj 200 1830 spigot;
#X connect 100 0 101 0;
#X connect 100 0 101 1;
#X connect 5 0 100 0;
#X connect 101 0 99 0;
#X msg 290 1900 47 68 105 110 111 117 116 47 102 118 68 73 79 67 83 43 48 47 108 112 102 47 102 0 44 102 0 0 62 229 17 120;
#X connect 102 0 1 0;
#X obj 140 1860 == 32;
#X obj 200 1880 spigot;
#X connect 103 0 104 0;
#X connect 103 0 104 1;
#X connect 5 0 103 0;
#X connect 104 0 102 0;
#X msg 290 1950 47 68 105 110 111 117 116 47 102 118 68 73 79 67 83 43 48 47 108 112 102 47 102 0 44 102 0 0 62 228 218 24;
#X connect 105 0 1 0;
#X obj 140 1910 == 33;
#X obj 200 1930 spigot;
#X connect 106 0 107 0;
#X connect 106 0 107 1;
#X connect 5 0 106 0;
#X connect 107 0 105 0;
#X msg 290 2000 47 68 105 110 111 117 116 47 102 118 68 73 79 67 83 43 48 47 108 112 102 47 102 0 44 102 0 0 62 233 104 154;
#X connect 108 0 1 0;
#X obj 140 1960 == 34;
#X obj 200 1980 spigot;
#X connect 109 0 110 0;
#X connect 109 0 110 1;
#X connect 5 0 109 0;
#X connect 110 0 108 0;
#X msg 290 2050 47 68 105 110 111 117 116 47 102 118 68 73 79 67 83 43 48 47 108 112 102 47 102 0 44 102 0 0 62 233 154 226;
#X connect 111 0 1 0;
#X obj 140 2010 == 35;
#X obj 200 2030 spigot;
#X connect 112 0 113 0;
#X connect 112 0 113 1;
#X connect 5 0 112 0;
#X connect 113 0 111 0;
#X msg 290 2100 47 68 105 110 111 117 116 47 102 118 68 73 79 67 83 43 48 47 108 112 102 47 102 0 44 102 0 0 62 239 32 82;
#X connect 114 0 1 0;
#X obj 140 2060 == 36;
#X obj 200 2080 spigot;
#X connect 115 0 116 0;
#X connect 115 0 116 1;
#X connect 5 0 115 0;
#X connect 116 0 114 0;
#X msg 290 2150 47 68 105 110 111 117 116 47 102 118 68 73 79 67 83 43 48 47 108 112 102 47 102 0 44 102 0 0 62 244 38 126;
#X connect 117 0 1 0;
#X obj 140 2110 == 37;
#X obj 200 2130 spigot;
#X connect 118 0 119 0;
#X connect 118 0 119 1;
#X connect 5 0 118 0;
#X connect 119 0 117 0;
#X msg 290 2200 47 68 105 110 111 117 116 47 102 118 68 73 79 67 83 43 48 47 108 112 102 47 102 0 44 102 0 0 62 249 145 204;
#X connect 120 0 1 0;
#X obj 140 2160 == 38;
#X obj 200 2180 spigot;
#X connect 121 0 122 0;
#X connect 121 0 122 1;
#X connect 5 0 121 0;
#X connect 122 0 120 0;
#X msg 290 2250 47 68 105 110 111 117 116 47 102 118 68 73 79 67 83 43 48 47 108 112 102 47 102 0 44 102 0 0 62 254 81 230;
#X connect 123 0 1 0;
#X obj 140 2210 == 39;
#X obj 200 2230 spigot;
#X connect 124 0 125 0;
#X connect 124 0 125 1;
#X connect 5 0 124 0;
#X connect 125 0 123 0;
#X msg 290 2300 47 68 105 110 111 117 116 47 102 118 68 73 79 67 83 43 48 47 108 112 102 47 102 0 44 102 0 0 63 1 238 78;
#X connect 126 0 1 0;
#X obj 140 2260 == 40;
#X obj 200 2280 spigot;
#X connect 127 0 128 0;
#X connect 127 0 128 1;
#X connect 5 0 127 0;
#X connect 128 0 126 0;
#X msg 290 2350 47 68 105 110 111 117 116 47 102 118 68 73 79 67 83 43 48 47 108 112 102 47 102 0 44 102 0 0 63 1 103 139;
#X connect 129 0 1 0;
#X obj 140 2310 == 41;
#X obj 200 2330 spigot;
#X connect 130 0 131 0;
#X connect 130 0 131 1;
#X connect 5 0 130 0;
#X connect 131 0 129 0;
#X msg 290 2400 47 68 105 110 111 117 116 47 102 118 68 73 79 67 83 43 48 47 108 112 102 47 102 0 44 102 0 0 63 3 150 40;
#X connect 132 0 1 0;
#X obj 140 2360 == 42;
#X obj 200 2380 spigot;
#X connect 133 0 134 0;
#X connect 133 0 134 1;
#X connect 5 0 133 0;
#X connect 134 0 132 0;
#X msg 290 2450 47 68 105 110 111 117 116 47 102 118 68 73 79 67 83 43 48 47 108 112 102 47 102 0 44 102 0 0 63 3 238 176;
#X connect 135 0 1 0;
#X obj 140 2410 == 43;
#X obj 200 2430 spigot;
#X connect 136 0 137 0;
#X connect 136 0 137 1;
#X connect 5 0 136 0;
#X connect 137 0 135 0;
#X msg 290 2500 47 68 105 110 111 117 116 47 102 118 68 73 79 67 83 43 48 47 108 112 102 47 102 0 44 102 0 0 63 6 153 250;
#X connect 138 0 1 0;
#X obj 140 2460 == 44;
#X obj 200 2480 spigot;
#X connect 139 0 140 0;
#X connect 139 0 140 1;
#X connect 5 0 139 0;
#X connect 140 0 138 0;
#X msg 290 2550 47 68 105 110 111 117 116 47 102 118 68 73 79 67 83 43 48 47 108 112 102 47 102 0 44 102 0 0 63 6 61 2;
#X connect 141 0 1 0;
#X obj 140 2510 == 45;
#X obj 200 2530 spigot;
#X connect 142 0 143 0;
#X connect 142 0 143 1;
#X connect 5 0 142 0;
#X connect 143 0 141 0;
#X msg 290 2600 47 68 105 110 111 117 116 47 102 118 68 73 79 67 83 43 48 47 108 112 102 47 102 0 44 102 0 0 63 6 164 222;
#X connect 144 0 1 0;
#X obj 140 2560 == 46;
#X obj 200 2580 spigot;
#X connect 145 0 146 0;
#X connect 145 0 146 1;
#X connect 5 0 145 0;
#X connect 146 0 144 0;
#X msg 290 2650 47 68 105 110 111 117 116 47 102 118 68 73 79 67 83 43 48 47 108 112 102 47 102 0 44 102 0 0 63 8 137 25;
#X connect 147 0 1 0;
#X obj 140 2610 == 47;
#X obj 200 2630 spigot;
#X connect 148 0 149 0;
#X connect 148 0 149 1;
#X connect 5 0 148 0;
#X connect 149 0 147 0;
#X msg 290 2700 47 68 105 110 111 117 116 47 102 118 68 73 79 67 83 43 48 47 108 112 102 47 102 0 44 102 0 0 63 10 214 163;
#X connect 150 0 1 0;
#X obj 140 2660 == 48;
#X obj 200 2680 spigot;
#X connect 151 0 152 0;
#X connect 151 0 152 1;
#X connect 5 0 151 0;
#X connect 152 0 150 0;
#X msg 290 2750 47 68 105 110 111 117 116 47 102 118 68 73 79 67 83 43 48 47 108 112 102 47 102 0 44 102 0 0 63 11 72 228;
#X connect 153 0 1 0;
#X obj 140 2710 == 49;
#X obj 200 2730 spigot;
#X connect 154 0 155 0;
#X connect 154 0 155 1;
#X connect 5 0 154 0;
#X connect 155 0 153 0;
#X msg 290 2800 47 68 105 110 111 117 116 47 102 118 68 73 79 67 83 43 48 47 108 112 102 47 102 0 44 102 0 0 63 13 145 122;
#X connect 156 0 1 0;
#X obj 140 2760 == 50;
#X obj 200 2780 spigot;
#X connect 157 0 158 0;
#X connect 157 0 158 1;
#X connect 5 0 157 0;
#X connect 158 0 156 0;
#X msg 290 2850 47 68 105 110 111 117 116 47 102 118 68 73 79 67 83 43 48 47 108 112 102 47 102 0 44 102 0 0 63 15 213 80;
#X connect 159 0 1 0;
#X obj 140 2810 == 51;
#X obj 200 2830 spigot;
#X connect 160 0 161 0;
#X connect 160 0 161 1;
#X connect 5 0 160 0;
#X connect 161 0 159 0;
#X msg 290 2900 47 68 105 110 111 117 116 47 102 118 68 73 79 67 83 43 48 47 108 112 102 47 102 0 44 102 0 0 63 13 48 110;
#X connect 162 0 1 0;
#X obj 140 2860 == 52;
#X obj 200 2880 spigot;
#X connect 163 0 164 0;
#X connect 163 0 164 1;
#X connect 5 0 163 0;
#X connect 164 0 162 0;
#X msg 290 2950 47 68 105 110 111 117 116 47 102 118 68 73 79 67 83 43 48 47 108 112 102 47 102 0 44 102 0 0 63 17 173 8;
#X connect 165 0 1 0;
#X obj 140 2910 == 53;
#X obj 200 2930 spigot;
#X connect 166 0 167 0;
#X connect 166 0 167 1;
#X connect 5 0 166 0;
#X connect 167 0 165 0;
#X msg 290 3000 47 68 105 110 111 117 116 47 102 118 68 73 79 67 83 43 48 47 108 112 102 47 102 0 44 102 0 0 63 19 202 48;
#X connect 168 0 1 0;
#X obj 140 2960 == 54;
#X obj 200 2980 spigot;
#X connect 169 0 170 0;
#X connect 169 0 170 1;
#X connect 5 0 169 0;
#X connect 170 0 168 0;
#X msg 290 3050 47 68 105 110 111 117 116 47 102 118 68 73 79 67 83 43 48 47 108 112 102 47 102 0 44 102 0 0 63 19 133 56;
#X connect 171 0 1 0;
#X obj 140 3010 == 55;
#X obj 200 3030 spigot;
#X connect 172 0 173 0;
#X connect 172 0 173 1;
#X connect 5 0 172 0;
#X connect 173 0 171 0;
#X msg 290 3100 47 68 105 110 111 117 116 47 102 118 68 73 79 67 83 43 48 47 108 112 102 47 102 0 44 102 0 0 63 21 139 34;
#X connect 174 0 1 0;
#X obj 140 3060 == 56;
#X obj 200 3080 spigot;
#X connect 175 0 176 0;
#X connect 175 0 176 1;
#X connect 5 0 175 0;
#X connect 176 0 174 0;
#X msg 290 3150 47 68 105 110 111 117 116 47 102 118 68 73 79 67 83 43 48 47 108 112 102 47 102 0 44 102 0 0 63 21 224 242;
#X connect 177 0 1 0;
#X obj 140 3110 == 57;
#X obj 200 3130 spigot;
#X connect 178 0 179 0;
#X connect 178 0 179 1;
#X connect 5 0 178 0;
#X connect 179 0 177 0;
#X msg 290 3200 47 68 105 110 111 117 116 47 102 118 68 73 79 67 83 43 48 47 108 112 102 47 102 0 44 102 0 0 63 24 48 84;
#X connect 180 0 1 0;
#X obj 140 3160 == 58;
#X obj 200 3180 spigot;
#X connect 181 0 182 0;
#X connect 181 0 182 1;
#X connect 5 0 181 0;
#X connect 182 0 180 0;
#X msg 290 3250 47 68 105 110 111 117 116 47 102 118 68 73 79 67 83 43 48 47 108 112 102 47 102 0 44 102 0 0 63 26 210 228;
#X connect 183 0 1 0;
#X obj 140 3210 == 59;
#X obj 200 3230 spigot;
#X connect 184 0 185 0;
#X connect 184 0 185 1;
#X connect 5 0 184 0;
#X connect 185 0 183 0;
#X msg 290 3300 47 68 105 110 111 117 116 47 102 118 68 73 79 67 83 43 48 47 108 112 102 47 102 0 44 102 0 0 63 26 162 194;
#X connect 186 0 1 0;
#X obj 140 3260 == 60;
#X obj 200 3280 spigot;
#X connect 187 0 188 0;
#X connect 187 0 188 1;
#X connect 5 0 187 0;
#X connect 188 0 186 0;
#X msg 290 3350 47 68 105 110 111 117 116 47 102 118 68 73 79 67 83 43 48 47 108 112 102 47 102 0 44 102 0 0 63 28 230 14;
#X connect 189 0 1 0;
#X obj 140 3310 == 61;
#X obj 200 3330 spigot;
#X connect 190 0 191 0;
#X connect 190 0 191 1;
#X connect 5 0 190 0;
#X connect 191 0 189 0;
#X msg 290 3400 47 68 105 110 111 117 116 47 102 118 68 73 79 67 83 43 48 47 108 112 102 47 102 0 44 102 0 0 63 28 117 202;
#X connect 192 0 1 0;
#X obj 140 3360 == 62;
#X obj 200 3380 spigot;
#X connect 193 0 194 0;
#X connect 193 0 194 1;
#X connect 5 0 193 0;
#X connect 194 0 192 0;
#X msg 290 3450 47 68 105 110 111 117 116 47 102 118 68 73 79 67 83 43 48 47 108 112 102 47 102 0 44 102 0 0 63 30 200 148;
#X connect 195 0 1 0;
#X obj 140 3410 == 63;
#X obj 200 3430 spigot;
#X connect 196 0 197 0;
#X connect 196 0 197 1;
#X connect 5 0 196 0;
#X connect 197 0 195 0;
#X msg 290 3500 47 68 105 110 111 117 116 47 102 118 68 73 79 67 83 43 48 47 108 112 102 47 102 0 44 102 0 0 63 30 28 188;
#X connect 198 0 1 0;
#X obj 140 3460 == 64;
#X obj 200 3480 spigot;
#X connect 199 0 200 0;
#X connect 199 0 200 1;
#X connect 5 0 199 0;
#X connect 200 0 198 0;
#X msg 290 3550 47 68 105 110 111 117 116 47 102 118 68 73 79 67 83 43 48 47 108 112 102 47 102 0 44 102 0 0 63 31 232 79;
#X connect 201 0 1 0;
#X obj 140 3510 == 65;
#X obj 200 3530 spigot;
#X connect 202 0 203 0;
#X connect 202 0 203 1;
#X connect 5 0 202 0;
#X connect 203 0 201 0;
#X msg 290 3600 47 68 105 110 111 117 116 47 102 118 68 73 79 67 83 43 48 47 108 112 102 47 102 0 44 102 0 0 63 31 241 174;
#X connect 204 0 1 0;
#X obj 140 3560 == 66;
#X obj 200 3580 spigot;
#X connect 205 0 206 0;
#X connect 205 0 206 1;
#X connect 5 0 205 0;
#X connect 206 0 204 0;
#X msg 290 3650 47 68 105 110 111 117 116 47 102 118 68 73 79 67 83 43 48 47 108 112 102 47 102 0 44 102 0 0 63 33 196 134;
#X connect 207 0 1 0;
#X obj 140 3610 == 67;
#X obj 200 3630 spigot;
#X connect 208 0 209 0;
#X connect 208 0 209 1;
#X connect 5 0 208 0;
#X connect 209 0 207 0;
#X msg 290 3700 47 68 105 110 111 117 116 47 102 118 68 73 79 67 83 43 48 47 108 112 102 47 102 0 44 102 0 0 63 33 193 194;
#X connect 210 0 1 0;
#X obj 140 3660 == 68;
#X obj 200 3680 spigot;
#X connect 211 0 212 0;
#X connect 211 0 212 1;
#X connect 5 0 211 0;
#X connect 212 0 210 0;
#X msg 290 3750 47 68 105 110 111 117 116 47 102 118 68 73 79 67 83 43 48 47 108 112 102 47 102 0 44 102 0 0 63 35 231 44;
#X connect 213 0 1 0;
#X obj 140 3710 == 69;
#X obj 200 3730 spigot;
#X connect 214 0 215 0;
#X connect 214 0 215 1;
#X connect 5 0 214 0;
#X connect 215 0 213 0;
#X msg 290 3800 47 68 105 110 111 117 116 47 102 118 68 73 79 67 83 43 48 47 108 112 102 47 102 0 44 102 0 0 63 37 184 131;
#X connect 216 0 1 0;
#X obj 140 3760 == 70;
#X obj 200 3780 spigot;
#X connect 217 0 218 0;
#X connect 217 0 218 1;
#X connect 5 0 217 0;
#X connect 218 0 216 0;
#X msg 290 3850 47 68 105 110 111 117 116 47 102 118 68 73 79 67 83 43 48 47 108 112 102 47 102 0 44 102 0 0 63 35 144 19;
#X connect 219 0 1 0;
#X obj 140 3810 == 71;
#X obj 200 3830 spigot;
#X connect 220 0 221 0;
#X connect 220 0 221 1;
#X connect 5 0 220 0;
#X connect 221 0 219 0;
#X msg 290 3900 47 68 105 110 111 117 116 47 102 118 68 73 79 67 83 43 48 47 108 112 102 47 102 0 44 102 0 0 63 39 197 102;
#X connect 222 0 1 0;
#X obj 140 3860 == 72;
#X obj 200 3880 spigot;
#X connect 223 0 224 0;
#X connect 223 0 224 1;
#X connect 5 0 223 0;
#X connect 224 0 222 0;
#X msg 290 3950 47 68 105 110 111 117 116 47 102 118 68 73 79 67 83 43 48 47 108 112 102 47 102 0 44 102 0 0 63 41 190 226;
#X connect 225 0 1 0;
#X obj 140 3910 == 73;
#X obj 200 3930 spigot;
#X connect 226 0 227 0;
#X connect 226 0 227 1;
#X connect 5 0 226 0;
#X connect 227 0 225 0;
#X msg 290 4000 47 68 105 110 111 117 116 47 102 118 68 73 79 67 83 43 48 47 108 112 102 47 102 0 44 102 0 0 63 38 27 230;
#X connect 228 0 1 0;
#X obj 140 3960 == 74;
#X obj 200 3980 spigot;
#X connect 229 0 230 0;
#X connect 229 0 230 1;
#X connect 5 0 229 0;
#X connect 230 0 228 0;
#X msg 290 4050 47 68 105 110 111 117 116 47 102 118 68 73 79 67 83 43 48 47 108 112 102 47 102 0 44 102 0 0 63 40 215 11;
#X connect 231 0 1 0;
#X obj 140 4010 == 75;
#X obj 200 4030 spigot;
#X connect 232 0 233 0;
#X connect 232 0 233 1;
#X connect 5 0 232 0;
#X connect 233 0 231 0;
#X msg 290 4100 47 68 105 110 111 117 116 47 102 118 68 73 79 67 83 43 48 47 108 112 102 47 102 0 44 102 0 0 63 40 117 114;
#X connect 234 0 1 0;
#X obj 140 4060 == 76;
#X obj 200 4080 spigot;
#X connect 235 0 236 0;
#X connect 235 0 236 1;
#X connect 5 0 235 0;
#X connect 236 0 234 0;
#X msg 290 4150 47 68 105 110 111 117 116 47 102 118 68 73 79 67 83 43 48 47 108 112 102 47 102 0 44 102 0 0 63 42 198 130;
#X connect 237 0 1 0;
#X obj 140 4110 == 77;
#X obj 200 4130 spigot;
#X connect 238 0 239 0;
#X connect 238 0 239 1;
#X connect 5 0 238 0;
#X connect 239 0 237 0;
#X msg 290 4200 47 68 105 110 111 117 116 47 102 118 68 73 79 67 83 43 48 47 108 112 102 47 102 0 44 102 0 0 63 43 7 255;
#X connect 240 0 1 0;
#X obj 140 4160 == 78;
#X obj 200 4180 spigot;
#X connect 241 0 242 0;
#X connect 241 0 242 1;
#X connect 5 0 241 0;
#X connect 242 0 240 0;
#X msg 290 4250 47 68 105 110 111 117 116 47 102 118 68 73 79 67 83 43 48 47 108 112 102 47 102 0 44 102 0 0 63 45 13 210;
#X connect 243 0 1 0;
#X obj 140 4210 == 79;
#X obj 200 4230 spigot;
#X connect 244 0 245 0;
#X connect 244 0 245 1;
#X connect 5 0 244 0;
#X connect 245 0 243 0;
#X msg 290 4300 47 68 105 110 111 117 116 47 102 118 68 73 79 67 83 43 48 47 108 112 102 47 102 0 44 102 0 0 63 45 62 4;
#X connect 246 0 1 0;
#X obj 140 4260 == 80;
#X obj 200 4280 spigot;
#X connect 247 0 248 0;
#X connect 247 0 248 1;
#X connect 5 0 247 0;
#X connect 248 0 246 0;
#X msg 290 4350 47 68 105 110 111 117 116 47 102 118 68 73 79 67 83 43 48 47 108 112 102 47 102 0 44 102 0 0 63 47 40 50;
#X connect 249 0 1 0;
#X obj 140 4310 == 81;
#X obj 200 4330 spigot;
#X connect 250 0 251 0;
#X connect 250 0 251 1;
#X connect 5 0 250 0;
#X connect 251 0 249 0;
#X msg 290 4400 47 68 105 110 111 117 116 47 102 118 68 73 79 67 83 43 48 47 108 112 102 47 102 0 44 102 0 0 63 47 112 17;
#X connect 252 0 1 0;
#X obj 140 4360 == 82;
#X obj 200 4380 spigot;
#X connect 253 0 254 0;
#X connect 253 0 254 1;
#X connect 5 0 253 0;
#X connect 254 0 252 0;
#X msg 290 4450 47 68 105 110 111 117 116 47 102 118 68 73 79 67 83 43 48 47 108 112 102 47 102 0 44 102 0 0 63 49 234 85;
#X connect 255 0 1 0;
#X obj 140 4410 == 83;
#X obj 200 4430 spigot;
#X connect 256 0 257 0;
#X connect 256 0 257 1;
#X connect 5 0 256 0;
#X connect 257 0 255 0;
#X msg 290 4500 47 68 105 110 111 117 116 47 102 118 68 73 79 67 83 43 48 47 108 112 102 47 102 0 44 102 0 0 63 50 9 156;
#X connect 258 0 1 0;
#X obj 140 4460 == 84;
#X obj 200 4480 spigot;
#X connect 259 0 260 0;
#X connect 259 0 260 1;
#X connect 5 0 259 0;
#X connect 260 0 258 0;
#X msg 290 4550 47 68 105 110 111 117 116 47 102 118 68 73 79 67 83 43 48 47 108 112 102 47 102 0 44 102 0 0 63 52 199 210;
#X connect 261 0 1 0;
#X obj 140 4510 == 85;
#X obj 200 4530 spigot;
#X connect 262 0 263 0;
#X connect 262 0 263 1;
#X connect 5 0 262 0;
#X connect 263 0 261 0;
#X msg 290 4600 47 68 105 110 111 117 116 47 102 118 68 73 79 67 83 43 48 47 108 112 102 47 102 0 44 102 0 0 63 52 193 8;
#X connect 264 0 1 0;
#X obj 140 4560 == 86;
#X obj 200 4580 spigot;
#X connect 265 0 266 0;
#X connect 265 0 266 1;
#X connect 5 0 265 0;
#X connect 266 0 264 0;
#X msg 290 4650 47 68 105 110 111 117 116 47 102 118 68 73 79 67 83 43 48 47 108 112 102 47 102 0 44 102 0 0 63 55 96 250;
#X connect 267 0 1 0;
#X obj 140 4610 == 87;
#X obj 200 4630 spigot;
#X connect 268 0 269 0;
#X connect 268 0 269 1;
#X connect 5 0 268 0;
#X connect 269 0 267 0;
#X msg 290 4700 47 68 105 110 111 117 116 47 102 118 68 73 79 67 83 43 48 47 108 112 102 47 102 0 44 102 0 0 63 55 137 29;
#X connect 270 0 1 0;
#X obj 140 4660 == 88;
#X obj 200 4680 spigot;
#X connect 271 0 272 0;
#X connect 271 0 272 1;
#X connect 5 0 271 0;
#X connect 272 0 270 0;
#X msg 290 4750 47 68 105 110 111 117 116 47 102 118 68 73 79 67 83 43 48 47 108 112 102 47 102 0 44 102 0 0 63 58 159 186;
#X connect 273 0 1 0;
#X obj 140 4710 == 89;
#X obj 200 4730 spigot;
#X connect 274 0 275 0;
#X connect 274 0 275 1;
#X connect 5 0 274 0;
#X connect 275 0 273 0;
#X msg 290 4800 47 68 105 110 111 117 116 47 102 118 68 73 79 67 83 43 48 47 108 112 102 47 102 0 44 102 0 0 63 57 202 58;
#X connect 276 0 1 0;
#X obj 140 4760 == 90;
#X obj 200 4780 spigot;
#X connect 277 0 278 0;
#X connect 277 0 278 1;
#X connect 5 0 277 0;
#X connect 278 0 276 0;
#X msg 290 4850 47 68 105 110 111 117 116 47 102 118 68 73 79 67 83 43 48 47 108 112 102 47 102 0 44 102 0 0 63 59 188 62;
#X connect 279 0 1 0;
#X obj 140 4810 == 91;
#X obj 200 4830 spigot;
#X connect 280 0 281 0;
#X connect 280 0 281 1;
#X connect 5 0 280 0;
#X connect 281 0 279 0;
#X msg 290 4900 47 68 105 110 111 117 116 47 102 118 68 73 79 67 83 43 48 47 108 112 102 47 102 0 44 102 0 0 63 59 253 250;
#X connect 282 0 1 0;
#X obj 140 4860 == 92;
#X obj 200 4880 spigot;
#X connect 283 0 284 0;
#X connect 283 0 284 1;
#X connect 5 0 283 0;
#X connect 284 0 282 0;
#X msg 290 4950 47 68 105 110 111 117 116 47 102 118 68 73 79 67 83 43 48 47 108 112 102 47 102 0 44 102 0 0 63 62 185 56;
#X connect 285 0 1 0;
#X obj 140 4910 == 93;
#X obj 200 4930 spigot;
#X connect 286 0 287 0;
#X connect 286 0 287 1;
#X connect 5 0 286 0;
#X connect 287 0 285 0;
#X msg 290 5000 47 68 105 110 111 117 116 47 102 118 68 73 79 67 83 43 48 47 108 112 102 47 102 0 44 102 0 0 63 62 192 204;
#X connect 288 0 1 0;
#X obj 140 4960 == 94;
#X obj 200 4980 spigot;
#X connect 289 0 290 0;
#X connect 289 0 290 1;
#X connect 5 0 289 0;
#X connect 290 0 288 0;
#X msg 290 5050 47 68 105 110 111 117 116 47 102 118 68 73 79 67 83 43 48 47 108 112 102 47 102 0 44 102 0 0 63 65 165 150;
#X connect 291 0 1 0;
#X obj 140 5010 == 95;
#X obj 200 5030 spigot;
#X connect 292 0 293 0;
#X connect 292 0 293 1;
#X connect 5 0 292 0;
#X connect 293 0 291 0;
#X msg 290 5100 47 68 105 110 111 117 116 47 102 118 68 73 79 67 83 43 48 47 108 112 102 47 102 0 44 102 0 0 63 66 25 250;
#X connect 294 0 1 0;
#X obj 140 5060 == 96;
#X obj 200 5080 spigot;
#X connect 295 0 296 0;
#X connect 295 0 296 1;
#X connect 5 0 295 0;
#X connect 296 0 294 0;
#X msg 290 5150 47 68 105 110 111 117 116 47 102 118 68 73 79 67 83 43 48 47 108 112 102 47 102 0 44 102 0 0 63 69 229 195;
#X connect 297 0 1 0;
#X obj 140 5110 == 97;
#X obj 200 5130 spigot;
#X connect 298 0 299 0;
#X connect 298 0 299 1;
#X connect 5 0 298 0;
#X connect 299 0 297 0;
#X msg 290 5200 47 68 105 110 111 117 116 47 102 118 68 73 79 67 83 43 48 47 108 112 102 47 102 0 44 102 0 0 63 69 81 216;
#X connect 300 0 1 0;
#X obj 140 5160 == 98;
#X obj 200 5180 spigot;
#X connect 301 0 302 0;
#X connect 301 0 302 1;
#X connect 5 0 301 0;
#X connect 302 0 300 0;
#X msg 290 5250 47 68 105 110 111 117 116 47 102 118 68 73 79 67 83 43 48 47 108 112 102 47 102 0 44 102 0 0 63 72 136 206;
#X connect 303 0 1 0;
#X obj 140 5210 == 99;
#X obj 200 5230 spigot;
#X connect 304 0 305 0;
#X connect 304 0 305 1;
#X connect 5 0 304 0;
#X connect 305 0 303 0;
#X msg 290 5300 47 68 105 110 111 117 116 47 102 118 68 73 79 67 83 43 48 47 108 112 102 47 102 0 44 102 0 0 63 72 178 207;
#X connect 306 0 1 0;
#X obj 140 5260 == 100;
#X obj 200 5280 spigot;
#X connect 307 0 308 0;
#X connect 307 0 308 1;
#X connect 5 0 307 0;
#X connect 308 0 306 0;
#X msg 290 5350 47 68 105 110 111 117 116 47 102 118 68 73 79 67 83 43 48 47 108 112 102 47 102 0 44 102 0 0 63 72 128 0;
#X connect 309 0 1 0;
#X obj 140 5310 == 101;
#X obj 200 5330 spigot;
#X connect 310 0 311 0;
#X connect 310 0 311 1;
#X connect 5 0 310 0;
#X connect 311 0 309 0;
#X msg 290 5400 47 68 105 110 111 117 116 47 102 118 68 73 79 67 83 43 48 47 108 112 102 47 102 0 44 102 0 0 63 75 239 90;
#X connect 312 0 1 0;
#X obj 140 5360 == 102;
#X obj 200 5380 spigot;
#X connect 313 0 314 0;
#X connect 313 0 314 1;
#X connect 5 0 313 0;
#X connect 314 0 312 0;
#X msg 290 5450 47 68 105 110 111 117 116 47 102 118 68 73 79 67 83 43 48 47 108 112 102 47 102 0 44 102 0 0 63 76 46 66;
#X connect 315 0 1 0;
#X obj 140 5410 == 103;
#X obj 200 5430 spigot;
#X connect 316 0 317 0;
#X connect 316 0 317 1;
#X connect 5 0 316 0;
#X connect 317 0 315 0;
#X msg 290 5500 47 68 105 110 111 117 116 47 102 118 68 73 79 67 83 43 48 47 108 112 102 47 102 0 44 102 0 0 63 79 156 120;
#X connect 318 0 1 0;
#X obj 140 5460 == 104;
#X obj 200 5480 spigot;
#X connect 319 0 320 0;
#X connect 319 0 320 1;
#X connect 5 0 319 0;
#X connect 320 0 318 0;
#X msg 290 5550 47 68 105 110 111 117 116 47 102 118 68 73 79 67 83 43 48 47 108 112 102 47 102 0 44 102 0 0 63 79 97 240;
#X connect 321 0 1 0;
#X obj 140 5510 == 105;
#X obj 200 5530 spigot;
#X connect 322 0 323 0;
#X connect 322 0 323 1;
#X connect 5 0 322 0;
#X connect 323 0 321 0;
#X msg 290 5600 47 68 105 110 111 117 116 47 102 118 68 73 79 67 83 43 48 47 108 112 102 47 102 0 44 102 0 0 63 82 135 4;
#X connect 324 0 1 0;
#X obj 140 5560 == 106;
#X obj 200 5580 spigot;
#X connect 325 0 326 0;
#X connect 325 0 326 1;
#X connect 5 0 325 0;
#X connect 326 0 324 0;
#X msg 290 5650 47 68 105 110 111 117 116 47 102 118 68 73 79 67 83 43 48 47 108 112 102 47 102 0 44 102 0 0 63 82 213 187;
#X connect 327 0 1 0;
#X obj 140 5610 == 107;
#X obj 200 5630 spigot;
#X connect 328 0 329 0;
#X connect 328 0 329 1;
#X connect 5 0 328 0;
#X connect 329 0 327 0;
#X msg 290 5700 47 68 105 110 111 117 116 47 102 118 68 73 79 67 83 43 48 47 108 112 102 47 102 0 44 102 0 0 63 85 171 116;
#X connect 330 0 1 0;
#X obj 140 5660 == 108;
#X obj 200 5680 spigot;
#X connect 331 0 332 0;
#X connect 331 0 332 1;
#X connect 5 0 331 0;
#X connect 332 0 330 0;
#X msg 290 5750 47 68 105 110 111 117 116 47 102 118 68 73 79 67 83 43 48 47 108 112 102 47 102 0 44 102 0 0 63 89 36 197;
#X connect 333 0 1 0;
#X obj 140 5710 == 109;
#X obj 200 5730 spigot;
#X connect 334 0 335 0;
#X connect 334 0 335 1;
#X connect 5 0 334 0;
#X connect 335 0 333 0;
#X msg 290 5800 47 68 105 110 111 117 116 47 102 118 68 73 79 67 83 43 48 47 108 112 102 47 102 0 44 102 0 0 63 91 212 48;
#X connect 336 0 1 0;
#X obj 140 5760 == 110;
#X obj 200 5780 spigot;
#X connect 337 0 338 0;
#X connect 337 0 338 1;
#X connect 5 0 337 0;
#X connect 338 0 336 0;
#X msg 290 5850 47 68 105 110 111 117 116 47 102 118 68 73 79 67 83 43 48 47 108 112 102 47 102 0 44 102 0 0 63 92 63 130;
#X connect 339 0 1 0;
#X obj 140 5810 == 111;
#X obj 200 5830 spigot;
#X connect 340 0 341 0;
#X connect 340 0 341 1;
#X connect 5 0 340 0;
#X connect 341 0 339 0;
#X msg 290 5900 47 68 105 110 111 117 116 47 102 118 68 73 79 67 83 43 48 47 108 112 102 47 102 0 44 102 0 0 63 95 7 14;
#X connect 342 0 1 0;
#X obj 140 5860 == 112;
#X obj 200 5880 spigot;
#X connect 343 0 344 0;
#X connect 343 0 344 1;
#X connect 5 0 343 0;
#X connect 344 0 342 0;
#X msg 290 5950 47 68 105 110 111 117 116 47 102 118 68 73 79 67 83 43 48 47 108 112 102 47 102 0 44 102 0 0 63 97 195 15;
#X connect 345 0 1 0;
#X obj 140 5910 == 113;
#X obj 200 5930 spigot;
#X connect 346 0 347 0;
#X connect 346 0 347 1;
#X connect 5 0 346 0;
#X connect 347 0 345 0;
#X msg 290 6000 47 68 105 110 111 117 116 47 102 118 68 73 79 67 83 43 48 47 108 112 102 47 102 0 44 102 0 0 63 100 201 34;
#X connect 348 0 1 0;
#X obj 140 5960 == 114;
#X obj 200 5980 spigot;
#X connect 349 0 350 0;
#X connect 349 0 350 1;
#X connect 5 0 349 0;
#X connect 350 0 348 0;
#X msg 290 6050 47 68 105 110 111 117 116 47 102 118 68 73 79 67 83 43 48 47 108 112 102 47 102 0 44 102 0 0 63 100 120 79;
#X connect 351 0 1 0;
#X obj 140 6010 == 115;
#X obj 200 6030 spigot;
#X connect 352 0 353 0;
#X connect 352 0 353 1;
#X connect 5 0 352 0;
#X connect 353 0 351 0;
#X msg 290 6100 47 68 105 110 111 117 116 47 102 118 68 73 79 67 83 43 48 47 108 112 102 47 102 0 44 102 0 0 63 103 138 128;
#X connect 354 0 1 0;
#X obj 140 6060 == 116;
#X obj 200 6080 spigot;
#X connect 355 0 356 0;
#X connect 355 0 356 1;
#X connect 5 0 355 0;
#X connect 356 0 354 0;
#X msg 290 6150 47 68 105 110 111 117 116 47 102 118 68 73 79 67 83 43 48 47 108 112 102 47 102 0 44 102 0 0 63 103 58 110;
#X connect 357 0 1 0;
#X obj 140 6110 == 117;
#X obj 200 6130 spigot;
#X connect 358 0 359 0;
#X connect 358 0 359 1;
#X connect 5 0 358 0;
#X connect 359 0 357 0;
#X msg 290 6200 47 68 105 110 111 117 116 47 102 118 68 73 79 67 83 43 48 47 108 112 102 47 102 0 44 102 0 0 63 106 95 170;
#X connect 360 0 1 0;
#X obj 140 6160 == 118;
#X obj 200 6180 spigot;
#X connect 361 0 362 0;
#X connect 361 0 362 1;
#X connect 5 0 361 0;
#X connect 362 0 360 0;
#X msg 290 6250 47 68 105 110 111 117 116 47 102 118 68 73 79 67 83 43 48 47 108 112 102 47 102 0 44 102 0 0 63 105 200 17;
#X connect 363 0 1 0;
#X obj 140 6210 == 119;
#X obj 200 6230 spigot;
#X connect 364 0 365 0;
#X connect 364 0 365 1;
#X connect 5 0 364 0;
#X connect 365 0 363 0;
#X msg 290 6300 47 68 105 110 111 117 116 47 102 118 68 73 79 67 83 43 48 47 108 112 102 47 102 0 44 102 0 0 63 108 106 82;
#X connect 366 0 1 0;
#X obj 140 6260 == 120;
#X obj 200 6280 spigot;
#X connect 367 0 368 0;
#X connect 367 0 368 1;
#X connect 5 0 367 0;
#X connect 368 0 366 0;
#X msg 290 6350 47 68 105 110 111 117 116 47 102 118 68 73 79 67 83 43 48 47 108 112 102 47 102 0 44 102 0 0 63 111 27 117;
#X connect 369 0 1 0;
#X obj 140 6310 == 121;
#X obj 200 6330 spigot;
#X connect 370 0 371 0;
#X connect 370 0 371 1;
#X connect 5 0 370 0;
#X connect 371 0 369 0;
#X msg 290 6400 47 68 105 110 111 117 116 47 102 118 68 73 79 67 83 43 48 47 108 112 102 47 102 0 44 102 0 0 63 113 118 232;
#X connect 372 0 1 0;
#X obj 140 6360 == 122;
#X obj 200 6380 spigot;
#X connect 373 0 374 0;
#X connect 373 0 374 1;
#X connect 5 0 373 0;
#X connect 374 0 372 0;
#X msg 290 6450 47 68 105 110 111 117 116 47 102 118 68 73 79 67 83 43 48 47 108 112 102 47 102 0 44 102 0 0 63 115 191 155;
#X connect 375 0 1 0;
#X obj 140 6410 == 123;
#X obj 200 6430 spigot;
#X connect 376 0 377 0;
#X connect 376 0 377 1;
#X connect 5 0 376 0;
#X connect 377 0 375 0;
#X msg 290 6500 47 68 105 110 111 117 116 47 102 118 68 73 79 67 83 43 48 47 108 112 102 47 102 0 44 102 0 0 63 115 160 180;
#X connect 378 0 1 0;
#X obj 140 6460 == 124;
#X obj 200 6480 spigot;
#X connect 379 0 380 0;
#X connect 379 0 380 1;
#X connect 5 0 379 0;
#X connect 380 0 378 0;
#X msg 290 6550 47 68 105 110 111 117 116 47 102 118 68 73 79 67 83 43 48 47 108 112 102 47 102 0 44 102 0 0 63 117 251 161;
#X connect 381 0 1 0;
#X obj 140 6510 == 125;
#X obj 200 6530 spigot;
#X connect 382 0 383 0;
#X connect 382 0 383 1;
#X connect 5 0 382 0;
#X connect 383 0 381 0;
#X msg 290 6600 47 68 105 110 111 117 116 47 102 118 68 73 79 67 83 43 48 47 108 112 102 47 102 0 44 102 0 0 63 120 58 210;
#X connect 384 0 1 0;
#X obj 140 6560 == 126;
#X obj 200 6580 spigot;
#X connect 385 0 386 0;
#X connect 385 0 386 1;
#X connect 5 0 385 0;
#X connect 386 0 384 0;
#X msg 290 6650 47 68 105 110 111 117 116 47 102 118 68 73 79 67 83 43 48 47 108 112 102 47 102 0 44 102 0 0 63 122 119 42;
#X connect 387 0 1 0;
#X obj 140 6610 == 127;
#X obj 200 6630 spigot;
#X connect 388 0 389 0;
#X connect 388 0 389 1;
#X connect 5 0 388 0;
#X connect 389 0 387 0;
#X msg 290 6700 47 68 105 110 111 117 116 47 102 118 68 73 79 67 83 43 48 47 108 112 102 47 102 0 44 102 0 0 63 124 254 235;
#X connect 390 0 1 0;
#X obj 140 6660 == 128;
#X obj 200 6680 spigot;
#X connect 391 0 392 0;
#X connect 391 0 392 1;
#X connect 5 0 391 0;
#X connect 392 0 390 0;
#X msg 290 6750 47 68 105 110 111 117 116 47 102 118 68 73 79 67 83 43 48 47 108 112 102 47 102 0 44 102 0 0 63 120 44 30;
#X connect 393 0 1 0;
#X obj 140 6710 == 129;
#X obj 200 6730 spigot;
#X connect 394 0 395 0;
#X connect 394 0 395 1;
#X connect 5 0 394 0;
#X connect 395 0 393 0;
#X msg 290 6800 47 68 105 110 111 117 116 47 102 118 68 73 79 67 83 43 48 47 108 112 102 47 102 0 44 102 0 0 63 122 141 84;
#X connect 396 0 1 0;
#X obj 140 6760 == 130;
#X obj 200 6780 spigot;
#X connect 397 0 398 0;
#X connect 397 0 398 1;
#X connect 5 0 397 0;
#X connect 398 0 396 0;
#X msg 290 6850 47 68 105 110 111 117 116 47 102 118 68 73 79 67 83 43 48 47 108 112 102 47 102 0 44 102 0 0 63 122 195 69;
#X connect 399 0 1 0;
#X obj 140 6810 == 131;
#X obj 200 6830 spigot;
#X connect 400 0 401 0;
#X connect 400 0 401 1;
#X connect 5 0 400 0;
#X connect 401 0 399 0;
#X msg 290 6900 47 68 105 110 111 117 116 47 102 118 68 73 79 67 83 43 48 47 108 112 102 47 102 0 44 102 0 0 63 124 202 192;
#X connect 402 0 1 0;
#X obj 140 6860 == 132;
#X obj 200 6880 spigot;
#X connect 403 0 404 0;
#X connect 403 0 404 1;
#X connect 5 0 403 0;
#X connect 404 0 402 0;
#X msg 290 6950 47 68 105 110 111 117 116 47 102 118 68 73 79 67 83 43 48 47 108 112 102 47 102 0 44 102 0 0 63 124 140 63;
#X connect 405 0 1 0;
#X obj 140 6910 == 133;
#X obj 200 6930 spigot;
#X connect 406 0 407 0;
#X connect 406 0 407 1;
#X connect 5 0 406 0;
#X connect 407 0 405 0;
#X msg 290 7000 47 68 105 110 111 117 116 47 102 118 68 73 79 67 83 43 48 47 108 112 102 47 102 0 44 102 0 0 63 126 177 34;
#X connect 408 0 1 0;
#X obj 140 6960 == 134;
#X obj 200 6980 spigot;
#X connect 409 0 410 0;
#X connect 409 0 410 1;
#X connect 5 0 409 0;
#X connect 410 0 408 0;
#X msg 290 7050 47 68 105 110 111 117 116 47 102 118 68 73 79 67 83 43 48 47 108 112 102 47 102 0 44 102 0 0 63 126 6 16;
#X connect 411 0 1 0;
#X obj 140 7010 == 135;
#X obj 200 7030 spigot;
#X connect 412 0 413 0;
#X connect 412 0 413 1;
#X connect 5 0 412 0;
#X connect 413 0 411 0;
#X msg 290 7100 47 68 105 110 111 117 116 47 102 118 68 73 79 67 83 43 48 47 108 112 102 47 102 0 44 102 0 0 63 127 223 102;
#X connect 414 0 1 0;
#X obj 140 7060 == 136;
#X obj 200 7080 spigot;
#X connect 415 0 416 0;
#X connect 415 0 416 1;
#X connect 5 0 415 0;
#X connect 416 0 414 0;
#X connect 4 0 5 0;
#X connect 2 0 1 0;
#X connect 3 0 1 0;
